<svg width="225" height="50" fill="none"
  xmlns="http://www.w3.org/2000/svg">
  <path d="M139.144 5.717c1.21 0 2.197.169 2.962.507.765.338 1.45.747 2.055 1.227.214.16.391.24.534.24.338 0 .56-.533.667-1.6h.614a74.418 74.418 0 0 0-.08 2.521c-.018.988-.027 2.3-.027 3.936h-.614c-.124-1.067-.316-1.997-.574-2.788-.258-.792-.733-1.472-1.427-2.042-.427-.409-.956-.73-1.588-.96a5.517 5.517 0 0 0-1.908-.347c-.978 0-1.815.253-2.508.76-.694.507-1.263 1.197-1.708 2.068-.445.872-.774 1.855-.987 2.949a17.688 17.688 0 0 0-.321 3.402c0 3.203.441 5.542 1.321 7.018.881 1.477 2.148 2.215 3.803 2.215.427 0 .8-.053 1.121-.16.32-.107.578-.231.773-.373.249-.178.418-.37.507-.574.089-.205.134-.476.134-.814v-2.615c0-.819-.067-1.428-.2-1.828a1.242 1.242 0 0 0-.787-.814c-.392-.142-.961-.222-1.708-.24v-.534c.373.018.822.031 1.347.04.525.01 1.072.018 1.641.027.57.009 1.094.013 1.575.013.747 0 1.432-.009 2.055-.026a94.45 94.45 0 0 0 1.521-.054v.534c-.499.035-.823.178-.974.427-.152.249-.227.872-.227 1.868v5.283h-.534a3.963 3.963 0 0 0-.2-.987c-.116-.356-.307-.534-.574-.534-.124 0-.289.032-.493.094-.205.062-.521.218-.948.467a12.97 12.97 0 0 1-2.081.947 6.839 6.839 0 0 1-2.295.387c-3.113 0-5.479-.845-7.098-2.535-1.619-1.69-2.429-4.047-2.429-7.072 0-2.028.414-3.789 1.241-5.283.827-1.495 1.966-2.66 3.416-3.496 1.45-.836 3.118-1.254 5.003-1.254ZM155.115 10.814c1.565 0 2.793.462 3.682 1.387.89.925 1.335 2.438 1.335 4.537h-8.78l-.053-.507h5.47a12.898 12.898 0 0 0-.16-2.415c-.124-.739-.32-1.33-.587-1.775-.267-.444-.623-.667-1.067-.667-.623 0-1.152.391-1.588 1.174-.436.783-.698 2.082-.787 3.896l.08.16a18.525 18.525 0 0 0-.054 1.388c0 1.228.174 2.224.521 2.989.347.765.787 1.32 1.321 1.667.533.347 1.076.52 1.627.52.534 0 1.117-.133 1.748-.4.632-.266 1.223-.844 1.775-1.734l.48.16a6.923 6.923 0 0 1-1.014 1.975 5.55 5.55 0 0 1-1.761 1.574c-.712.41-1.566.614-2.562.614-1.209 0-2.277-.258-3.202-.774-.925-.516-1.65-1.298-2.175-2.348-.525-1.05-.787-2.384-.787-4.003 0-1.654.28-3.033.841-4.136.56-1.103 1.334-1.926 2.321-2.468.988-.543 2.113-.814 3.376-.814ZM170.338 10.814c.57 0 1.032.12 1.388.36.356.24.618.547.787.92.169.374.254.766.254 1.175 0 .658-.192 1.196-.574 1.614-.383.418-.885.627-1.508.627s-1.107-.155-1.454-.467c-.347-.311-.521-.725-.521-1.24 0-.499.112-.912.334-1.241.222-.33.503-.61.841-.84a1.196 1.196 0 0 0-.748.026c-.462.07-.876.289-1.24.654a4.09 4.09 0 0 0-.868 1.294c-.213.498-.32.987-.32 1.467v7.072c0 .854.209 1.432.627 1.734.418.303 1.045.454 1.881.454v.56c-.409-.017-1.005-.04-1.787-.066a72.423 72.423 0 0 0-2.455-.04c-.712 0-1.433.013-2.162.04-.729.026-1.281.049-1.654.066v-.56c.622 0 1.063-.133 1.321-.4.257-.267.386-.774.386-1.521v-8.406c0-.8-.12-1.392-.36-1.774-.24-.383-.689-.574-1.347-.574v-.56c.569.053 1.12.08 1.654.08.747 0 1.446-.032 2.095-.094.649-.062 1.25-.156 1.801-.28v2.482c.214-.48.498-.917.854-1.308a3.975 3.975 0 0 1 1.228-.92 3.523 3.523 0 0 1 1.547-.334Z" fill="#32302B"/>
  <path d="M178.01 4.09v18.412c0 .747.129 1.254.387 1.52.258.268.698.4 1.321.4v.561c-.338-.018-.845-.04-1.521-.066a55.184 55.184 0 0 0-4.15 0c-.703.026-1.232.049-1.588.066v-.56c.623 0 1.063-.133 1.321-.4s.387-.774.387-1.521V7.292c0-.801-.12-1.393-.36-1.775-.24-.383-.689-.574-1.348-.574v-.56c.57.053 1.121.08 1.655.08.729 0 1.423-.031 2.081-.094a14.46 14.46 0 0 0 1.815-.28ZM184.027 25.17c-1.192 0-2.055-.311-2.589-.934-.533-.622-.8-1.378-.8-2.268 0-.765.173-1.388.52-1.868a4.15 4.15 0 0 1 1.348-1.187 9.92 9.92 0 0 1 1.748-.774c.613-.205 1.2-.41 1.761-.614.56-.205 1.014-.44 1.361-.707.347-.267.52-.605.52-1.014v-2.082c0-.462-.076-.876-.227-1.24a1.752 1.752 0 0 0-.694-.841c-.311-.196-.716-.293-1.214-.293-.355 0-.711.048-1.067.146a1.952 1.952 0 0 0-.881.494c.498.178.885.45 1.161.814.276.364.414.778.414 1.24 0 .606-.209 1.086-.627 1.442a2.213 2.213 0 0 1-1.481.533c-.641 0-1.126-.2-1.455-.6-.329-.4-.493-.885-.493-1.454 0-.516.129-.943.387-1.281.258-.338.618-.659 1.08-.96.498-.286 1.099-.508 1.802-.668.702-.16 1.463-.24 2.281-.24.818 0 1.557.084 2.215.253.658.17 1.21.476 1.654.92.41.41.676.913.801 1.509.124.596.187 1.347.187 2.255v7.258c0 .427.044.73.133.907.089.178.24.267.454.267.178 0 .347-.045.507-.134.16-.088.311-.195.453-.32l.267.454c-.373.32-.805.565-1.294.734a5.002 5.002 0 0 1-1.641.253c-1.067 0-1.775-.218-2.121-.654a2.485 2.485 0 0 1-.548-1.507c-.444.73-.991 1.272-1.641 1.628-.649.355-1.409.533-2.281.533Zm2.055-1.708c.338 0 .653-.08.947-.24.293-.16.582-.445.867-.854v-5.47a2.675 2.675 0 0 1-.894.894c-.382.24-.774.498-1.174.774a3.55 3.55 0 0 0-1.001 1.054c-.267.427-.4.996-.4 1.708 0 .765.16 1.312.48 1.64.321.33.712.494 1.175.494ZM203.893 10.814c.748 0 1.357.093 1.828.28.472.187.841.44 1.108.76.284.339.493.774.627 1.308.133.534.2 1.254.2 2.161v7.179c0 .747.129 1.254.387 1.52.258.268.698.401 1.321.401v.56c-.338-.017-.845-.04-1.521-.066a50.908 50.908 0 0 0-3.99 0c-.649.026-1.143.049-1.481.066v-.56c.534 0 .908-.133 1.121-.4.214-.267.32-.774.32-1.521v-8.3c0-.444-.044-.83-.133-1.16a1.447 1.447 0 0 0-.48-.774c-.232-.187-.579-.28-1.041-.28-.747 0-1.374.293-1.881.88-.507.588-.761 1.326-.761 2.215v7.419c0 .747.111 1.254.334 1.52.222.268.591.401 1.107.401v.56c-.32-.017-.787-.04-1.401-.066-.614-.027-1.25-.04-1.908-.04-.676 0-1.37.013-2.081.04-.712.026-1.246.049-1.601.066v-.56c.622 0 1.063-.133 1.32-.4.258-.267.387-.774.387-1.521v-8.406c0-.8-.12-1.392-.36-1.774-.24-.383-.689-.574-1.347-.574v-.56c.569.053 1.12.08 1.654.08.747 0 1.445-.032 2.095-.094.649-.062 1.25-.156 1.801-.28v2.402c.445-.908 1.05-1.548 1.815-1.922.765-.373 1.618-.56 2.561-.56ZM223.119 4.09v17.958c0 .8.125 1.392.374 1.775.249.382.694.573 1.334.573v.56a17.179 17.179 0 0 0-1.654-.08c-.747 0-1.446.027-2.095.08a10.72 10.72 0 0 0-1.801.294V7.291c0-.8-.12-1.392-.36-1.774-.241-.383-.69-.574-1.348-.574v-.56c.569.053 1.121.08 1.654.08.73 0 1.424-.031 2.082-.094a14.414 14.414 0 0 0 1.814-.28Zm-6.804 6.724c.783 0 1.472.129 2.068.387.596.258 1.063.689 1.401 1.294l-.32.293c-.232-.427-.539-.733-.921-.92a2.73 2.73 0 0 0-1.214-.28c-.907 0-1.628.529-2.162 1.587-.533 1.059-.791 2.691-.774 4.897 0 1.512.103 2.717.307 3.616.205.898.498 1.543.881 1.934.382.392.823.587 1.321.587.605 0 1.147-.24 1.628-.72.48-.48.738-1.13.774-1.948l.133.934c-.267.943-.698 1.659-1.294 2.148-.596.49-1.375.734-2.335.734-1.05 0-1.988-.258-2.815-.774-.828-.516-1.473-1.312-1.935-2.388-.463-1.077-.694-2.469-.694-4.176 0-1.62.258-2.958.774-4.016.516-1.059 1.223-1.855 2.121-2.389.899-.534 1.917-.8 3.056-.8ZM77.67 6.09v.534c-.605.018-1.063.085-1.375.2a1 1 0 0 0-.627.64c-.107.312-.16.797-.16 1.455v13.45c0 .569.049 1 .147 1.294.098.293.28.484.547.573.267.09.65.134 1.147.134h1.521c.925 0 1.708-.223 2.349-.668.64-.444 1.156-1.085 1.547-1.92.392-.837.659-1.85.8-3.043h.615c-.054.587-.08 1.352-.08 2.295a49.443 49.443 0 0 0 .186 3.95 98.704 98.704 0 0 0-3.068-.067 393.455 393.455 0 0 0-3.042-.014h-2.295c-.961 0-1.98.005-3.056.014-1.076.009-2.086.03-3.028.066v-.533c.587-.036 1.027-.107 1.32-.214.294-.107.49-.32.588-.64.097-.32.146-.8.146-1.441V8.919c0-.658-.049-1.143-.147-1.454a.962.962 0 0 0-.587-.64c-.293-.116-.733-.183-1.32-.2V6.09c.444.017 1.014.035 1.707.053a87.777 87.777 0 0 0 4.403 0c.712-.018 1.299-.036 1.762-.053ZM96.576 11.187v.56c-.338.072-.654.258-.948.561-.293.302-.574.836-.84 1.601l-3.95 10.834-.827 1.254-5.497-12.755c-.338-.676-.658-1.094-.96-1.254-.303-.16-.552-.24-.748-.24v-.56c.516.053 1.054.093 1.615.12a35.601 35.601 0 0 0 3.602-.014c.614-.036 1.188-.071 1.721-.107v.56c-.409 0-.774.027-1.094.08-.32.054-.53.2-.627.44-.098.241-.031.655.2 1.242l3.336 8.139-.214.106 2.349-6.35c.444-1.246.507-2.153.186-2.723-.32-.569-.916-.88-1.788-.933v-.56a31.078 31.078 0 0 0 2.455.106c.374 0 .743-.009 1.108-.027.365-.018.671-.044.92-.08Zm-5.738 13.556-1.014 2.695c-.32.89-.703 1.521-1.147 1.895-.267.231-.592.4-.974.507-.383.107-.805.16-1.268.16-.409 0-.805-.071-1.187-.213a2.405 2.405 0 0 1-.96-.64c-.259-.285-.388-.66-.388-1.122 0-.498.17-.898.507-1.2.338-.303.8-.454 1.388-.454.516 0 .938.129 1.267.387.33.258.494.645.494 1.16 0 .339-.098.641-.293.908a1.845 1.845 0 0 1-.828.614c.09.017.174.03.254.04a2.12 2.12 0 0 0 1.588-.494c.409-.338.738-.872.987-1.601l.96-2.642h.614ZM103.553 10.814c1.228 0 2.317.244 3.269.734.952.489 1.708 1.267 2.268 2.335.561 1.067.841 2.472.841 4.216 0 1.743-.28 3.149-.841 4.216-.56 1.067-1.316 1.841-2.268 2.322-.952.48-2.041.72-3.269.72-1.227 0-2.321-.24-3.282-.72-.96-.48-1.717-1.255-2.268-2.322-.552-1.067-.828-2.473-.828-4.216 0-1.744.276-3.15.828-4.216.551-1.068 1.307-1.846 2.268-2.335.961-.49 2.055-.734 3.282-.734Zm0 .534c-.836 0-1.516.529-2.041 1.587-.525 1.059-.787 2.78-.787 5.164s.262 4.1.787 5.15c.525 1.05 1.205 1.574 2.041 1.574.819 0 1.495-.524 2.028-1.574.534-1.05.801-2.766.801-5.15 0-2.384-.267-4.105-.801-5.164-.533-1.058-1.209-1.588-2.028-1.588ZM120.911 10.814c.748 0 1.348.098 1.802.293.453.196.822.445 1.107.748.32.338.547.773.68 1.307.134.534.201 1.254.201 2.161v7.179c0 .747.137 1.254.413 1.52.276.268.743.401 1.401.401v.56c-.32-.017-.814-.04-1.481-.066a48.592 48.592 0 0 0-1.934-.04c-.659 0-1.299.013-1.922.04-.622.026-1.085.049-1.387.066v-.56c.569 0 .969-.133 1.2-.4.232-.267.347-.774.347-1.521v-8.086c0-.48-.044-.912-.133-1.294-.089-.383-.267-.685-.534-.907-.267-.223-.649-.334-1.147-.334-.872 0-1.592.351-2.162 1.054-.569.703-.854 1.58-.854 2.629v6.938c0 .747.116 1.254.347 1.52.232.268.632.401 1.201.401v.56c-.302-.017-.756-.04-1.361-.066a41.89 41.89 0 0 0-1.841-.04c-.658 0-1.325.013-2.001.04-.676.026-1.184.049-1.522.066v-.56c.659 0 1.126-.133 1.401-.4.276-.267.414-.774.414-1.521v-8.406c0-.8-.129-1.392-.387-1.774-.258-.383-.734-.574-1.428-.574v-.56a18.108 18.108 0 0 0 3.536-.013 11.84 11.84 0 0 0 1.641-.281v2.668c.445-1.014 1.059-1.725 1.842-2.134a5.442 5.442 0 0 1 2.561-.614ZM13.316 6.09a31.871 31.871 0 0 0-.187 3.149c0 .32.009.627.027.92.017.294.035.539.053.735h-.614c-.107-1.05-.258-1.882-.453-2.495-.196-.614-.53-1.05-1.001-1.308-.472-.258-1.179-.387-2.122-.387H6.805c-.605 0-1.063.05-1.375.147a.923.923 0 0 0-.627.614c-.106.311-.16.796-.16 1.454v13.236c0 .64.054 1.12.16 1.44.107.32.316.53.627.628.312.098.77.147 1.375.147h1.948c1.12 0 1.97-.152 2.548-.454.578-.303.996-.796 1.254-1.481s.45-1.614.574-2.789h.614c-.054.48-.08 1.121-.08 1.922a37.023 37.023 0 0 0 .186 3.415 98.697 98.697 0 0 0-3.068-.066 393.446 393.446 0 0 0-3.042-.014H5.617c-.88 0-1.819.005-2.815.014A88.2 88.2 0 0 0 0 24.983v-.533c.605-.036 1.063-.107 1.374-.214a.962.962 0 0 0 .627-.64c.107-.32.16-.8.16-1.441V8.919c0-.658-.053-1.143-.16-1.454a1 1 0 0 0-.627-.64c-.311-.116-.77-.183-1.374-.2V6.09c.872.018 1.806.036 2.802.054.996.018 1.935.026 2.815.026H7.74c.818 0 1.747-.004 2.788-.013a80.77 80.77 0 0 0 2.789-.067Zm-4.59 9.127v.533H3.843v-.533h4.883Zm.774-3.523c-.071 1.014-.102 1.788-.094 2.322.01.534.014 1.023.014 1.467 0 .445.009.934.026 1.468.018.534.063 1.308.134 2.322h-.614a31.208 31.208 0 0 0-.253-1.668c-.098-.543-.312-.987-.64-1.334-.33-.347-.886-.52-1.669-.52v-.534c.783 0 1.33-.205 1.641-.614.312-.41.512-.89.6-1.441l.241-1.468H9.5ZM9.9.274c.356-.232.68-.317.974-.254a.964.964 0 0 1 .654.44.944.944 0 0 1 .107.76c-.072.276-.294.539-.668.788-.373.23-.805.44-1.294.627s-1.058.409-1.708.667c-.649.258-1.436.618-2.361 1.08l-.187-.346c.818-.623 1.49-1.17 2.015-1.641.525-.472.974-.885 1.347-1.241.374-.356.748-.65 1.121-.88ZM20.454 30c-.943 0-1.833-.098-2.669-.294-.836-.195-1.508-.502-2.015-.92-.507-.418-.76-.947-.76-1.588 0-.622.249-1.156.747-1.6.498-.446 1.174-.784 2.028-1.015l.16.427a1.673 1.673 0 0 0-.934.747 2.334 2.334 0 0 0-.347 1.254c0 .819.378 1.446 1.134 1.882.757.435 1.74.653 2.95.653.8 0 1.582-.102 2.347-.306.765-.205 1.397-.547 1.895-1.028.498-.48.747-1.112.747-1.894 0-.588-.209-1.072-.627-1.455-.418-.382-1.24-.573-2.468-.573h-1.975c-.57 0-1.12-.045-1.654-.134-.534-.089-.97-.276-1.308-.56-.338-.285-.507-.72-.507-1.308 0-.605.25-1.187.747-1.748.498-.56 1.415-1.134 2.749-1.72l.32.24c-.605.32-1.13.644-1.574.973-.445.33-.668.716-.668 1.161 0 .57.427.854 1.281.854h3.336c1.103 0 2.077.245 2.922.734.845.489 1.267 1.294 1.267 2.415 0 .836-.266 1.619-.8 2.348-.534.73-1.33 1.321-2.388 1.775-1.059.453-2.37.68-3.936.68Zm.133-10.7c-1.316 0-2.424-.339-3.322-1.015-.899-.676-1.348-1.743-1.348-3.202 0-1.476.45-2.548 1.348-3.215.898-.667 2.006-1.001 3.322-1.001 1.317 0 2.424.334 3.322 1 .899.668 1.348 1.74 1.348 3.216 0 1.459-.45 2.526-1.348 3.202-.898.676-2.005 1.014-3.322 1.014Zm0-.48c.676 0 1.205-.268 1.588-.801.382-.534.573-1.513.573-2.936s-.19-2.401-.573-2.935c-.383-.534-.912-.8-1.588-.8-.658 0-1.183.266-1.574.8-.392.534-.587 1.512-.587 2.935s.195 2.402.587 2.936c.391.533.916.8 1.574.8Zm3.843-5.738-.48-.187c.248-.605.675-1.138 1.28-1.601.605-.463 1.237-.694 1.895-.694.462 0 .836.13 1.12.387.285.258.427.645.427 1.16 0 .552-.146.94-.44 1.162-.293.222-.591.333-.894.333-.267 0-.516-.093-.747-.28-.231-.187-.365-.485-.4-.894-.036-.41.089-.934.373-1.574l.347.08c-.747.284-1.28.582-1.6.894-.321.311-.614.716-.881 1.214ZM33.516 4.062v18.44c0 .747.155 1.254.467 1.52.31.268.831.4 1.56.4v.561c-.302-.018-.76-.04-1.374-.067a42.831 42.831 0 0 0-3.696 0c-.622.027-1.085.05-1.387.067v-.56c.73 0 1.25-.133 1.56-.4.312-.267.468-.774.468-1.521V7.265c0-.801-.143-1.393-.427-1.775-.285-.383-.818-.574-1.601-.574v-.56c.57.053 1.12.08 1.654.08.516 0 1.01-.031 1.481-.093a7.52 7.52 0 0 0 1.295-.28ZM39.586 4.57c.462 0 .863.168 1.2.506.339.338.508.739.508 1.201 0 .463-.17.863-.507 1.201a1.641 1.641 0 0 1-1.201.507c-.463 0-.863-.169-1.2-.507a1.641 1.641 0 0 1-.508-1.2c0-.463.17-.864.507-1.202a1.641 1.641 0 0 1 1.201-.507Zm1.388 6.377v11.555c0 .747.155 1.254.467 1.52.31.268.831.4 1.56.4v.561c-.302-.018-.76-.04-1.374-.066a42.672 42.672 0 0 0-3.696 0c-.622.026-1.085.048-1.387.066v-.56c.73 0 1.25-.133 1.561-.4.311-.267.467-.774.467-1.521v-8.353c0-.8-.142-1.392-.427-1.774-.285-.383-.818-.574-1.601-.574v-.56c.57.053 1.12.08 1.654.08.516 0 1.01-.031 1.481-.094a7.525 7.525 0 0 0 1.295-.28ZM48.779 10.867c.711 0 1.316.116 1.814.347.498.231.863.445 1.094.64.587.48.943.16 1.068-.96h.613c-.035.498-.062 1.09-.08 1.774a111.88 111.88 0 0 0-.026 2.762h-.614a8.603 8.603 0 0 0-.547-1.921 3.792 3.792 0 0 0-1.134-1.534c-.498-.4-1.148-.6-1.948-.6-.623 0-1.143.173-1.561.52-.419.346-.627.858-.627 1.534 0 .534.16.992.48 1.374.32.383.738.738 1.254 1.067.516.33 1.076.69 1.681 1.081 1.014.659 1.877 1.326 2.589 2.002.711.676 1.067 1.565 1.067 2.668 0 .819-.214 1.503-.64 2.055a4.01 4.01 0 0 1-1.668 1.254 5.82 5.82 0 0 1-2.255.427c-.392 0-.76-.031-1.108-.093a5.362 5.362 0 0 1-1-.28 5.096 5.096 0 0 1-.547-.32 7.779 7.779 0 0 1-.547-.401c-.178-.142-.338-.138-.48.013-.143.151-.25.45-.32.894h-.615c.036-.57.063-1.263.08-2.081.018-.819.027-1.904.027-3.256h.614c.124.997.302 1.868.534 2.615.23.747.596 1.33 1.094 1.748.498.418 1.192.627 2.081.627.534 0 1.063-.186 1.588-.56.525-.374.787-1.032.787-1.975 0-.782-.285-1.423-.854-1.921-.57-.498-1.29-1.023-2.161-1.575-.64-.409-1.241-.818-1.802-1.227a5.582 5.582 0 0 1-1.36-1.388c-.347-.515-.52-1.138-.52-1.867 0-.801.181-1.455.546-1.962.365-.507.85-.88 1.455-1.12a5.23 5.23 0 0 1 1.947-.36ZM62.054 10.867c1.565 0 2.788.476 3.669 1.428.88.951 1.32 2.432 1.32 4.443h-9.419l-.027-.507h6.885a8.762 8.762 0 0 0-.213-2.415c-.178-.739-.458-1.33-.84-1.775-.383-.444-.877-.667-1.482-.667-.818 0-1.543.41-2.175 1.228-.631.818-1.01 2.117-1.134 3.896l.08.106c-.035.267-.062.56-.08.881-.018.32-.026.64-.026.96 0 1.21.195 2.251.587 3.123.39.871.902 1.534 1.534 1.988.632.453 1.285.68 1.961.68.8 0 1.54-.195 2.215-.587.676-.391 1.245-1.085 1.708-2.081l.534.213a5.494 5.494 0 0 1-.961 1.708 5.14 5.14 0 0 1-1.681 1.348c-.676.347-1.459.52-2.348.52-1.281 0-2.38-.293-3.296-.88-.916-.588-1.619-1.401-2.108-2.442-.49-1.041-.734-2.237-.734-3.59 0-1.565.25-2.912.747-4.042.498-1.13 1.201-2.002 2.108-2.615.908-.614 1.966-.92 3.176-.92ZM0 37.288c.236.01.54.019.908.028.369.01.738.014 1.107.014.463 0 .903-.004 1.32-.014.415-.01.709-.014.879-.014 1.267 0 2.21.222 2.83.667.62.444.93 1.045.93 1.802 0 .312-.062.631-.185.957a2.33 2.33 0 0 1-.638.901c-.303.275-.717.5-1.242.674-.525.175-1.194.263-2.007.263H2.54v-.284h1.22c.596 0 1.052-.106 1.369-.32.317-.212.53-.496.638-.85.11-.355.164-.75.164-1.185 0-.747-.147-1.327-.44-1.738-.294-.412-.8-.617-1.518-.617-.388 0-.641.08-.76.24-.118.162-.177.488-.177.98v7.037c0 .34.029.596.085.766.057.17.163.284.32.34.156.057.385.095.688.114v.284c-.237-.02-.54-.03-.908-.036a86.17 86.17 0 0 0-2.313 0c-.369.005-.672.017-.908.036v-.284c.312-.019.546-.057.702-.113a.492.492 0 0 0 .312-.34c.052-.171.078-.427.078-.767v-7.037c0-.35-.026-.608-.078-.773a.511.511 0 0 0-.312-.341c-.156-.061-.39-.097-.702-.106v-.284Zm2.54 5.037c.444.018.815.04 1.113.063.298.024.554.045.767.064.212.02.404.043.574.071.785.076 1.365.258 1.738.546.374.289.622.726.745 1.313l.326 1.461c.085.388.178.665.277.83.1.166.244.244.433.234a.552.552 0 0 0 .34-.106c.095-.071.19-.168.284-.291l.199.17a2.408 2.408 0 0 1-.752.646c-.265.137-.601.206-1.008.206-.454 0-.837-.107-1.149-.32C6.115 47 5.902 46.595 5.79 46l-.27-1.419a8.486 8.486 0 0 0-.262-1.05c-.1-.302-.235-.539-.405-.709-.17-.17-.42-.255-.752-.255H2.568l-.028-.242Zm10.499-2.526c.832 0 1.485.25 1.957.752.473.501.71 1.3.71 2.398h-4.781l-.015-.27h3.15a5.582 5.582 0 0 0-.085-1.284c-.076-.392-.196-.707-.362-.943-.165-.237-.38-.355-.645-.355-.36 0-.672.21-.937.631-.265.421-.43 1.11-.496 2.065l.056.085c-.018.123-.03.255-.035.397-.005.142-.007.284-.007.426 0 .652.095 1.191.284 1.617.189.426.435.738.737.937.303.198.615.297.937.297.33 0 .669-.082 1.014-.248.345-.165.65-.494.915-.986l.27.114c-.104.33-.277.66-.518.986a2.836 2.836 0 0 1-.93.801c-.378.208-.822.313-1.333.313-.643 0-1.21-.142-1.702-.426-.492-.284-.875-.707-1.15-1.27-.274-.563-.411-1.25-.411-2.064 0-.861.144-1.585.433-2.171.288-.587.688-1.033 1.198-1.34.511-.308 1.093-.462 1.746-.462Zm1.49-4.043a.637.637 0 0 1 .226.468c.01.189-.061.383-.213.582-.141.18-.319.352-.531.517l-.76.59c-.293.226-.643.534-1.05.921l-.155-.127c.283-.492.498-.908.645-1.249.147-.34.272-.634.376-.88.104-.245.232-.463.383-.652a.837.837 0 0 1 .532-.312.705.705 0 0 1 .546.142Zm10.342 4.043c.653 0 1.232.13 1.738.39s.908.674 1.206 1.242c.298.567.447 1.314.447 2.241s-.149 1.675-.447 2.242c-.298.568-.7.979-1.206 1.234-.506.256-1.085.383-1.738.383-.652 0-1.234-.127-1.745-.383-.51-.255-.913-.666-1.206-1.234-.293-.568-.44-1.315-.44-2.242s.147-1.674.44-2.241c.293-.568.695-.982 1.206-1.242.51-.26 1.093-.39 1.745-.39Zm-4.582-3.561c.312 0 .584.04.815.12.232.081.433.187.603.32.142.113.258.255.348.425.09.17.135.36.135.568a.901.901 0 0 1-.263.653.882.882 0 0 1-.66.27c-.283 0-.517-.084-.702-.25-.184-.165-.276-.394-.276-.687 0-.227.063-.423.191-.59.128-.165.31-.28.546-.347-.028-.066-.09-.123-.184-.17a.865.865 0 0 0-.383-.07.918.918 0 0 0-.823.426c-.095.16-.16.396-.199.708-.035.29-.054.719-.056 1.286v1.112h1.518v.284H19.38v5.575c0 .464.125.774.375.93.251.156.59.234 1.015.234v.298c-.236-.01-.568-.021-.993-.036a40.96 40.96 0 0 0-1.362-.02c-.34 0-.681.006-1.022.02-.34.015-.596.026-.766.036v-.298c.35 0 .598-.071.745-.213.147-.142.22-.411.22-.809v-5.717H16.57v-.284h1.022c0-.842.064-1.483.191-1.922.128-.44.343-.821.646-1.143.199-.208.461-.378.787-.51a2.823 2.823 0 0 1 1.072-.199Zm4.582 3.845c-.444 0-.806.281-1.085.844-.28.563-.419 1.478-.419 2.745 0 1.268.14 2.18.419 2.739.279.558.64.837 1.085.837.435 0 .795-.28 1.079-.837.283-.558.425-1.471.425-2.739 0-1.267-.142-2.182-.425-2.745-.284-.563-.644-.844-1.079-.844Zm9.038-.284c.293 0 .537.062.73.184.194.123.339.28.433.469.095.189.142.388.142.596 0 .312-.092.572-.276.78a.929.929 0 0 1-.731.312c-.284 0-.516-.076-.695-.227-.18-.151-.27-.36-.27-.624 0-.237.06-.435.177-.596.119-.16.253-.288.405-.383a.557.557 0 0 0-.355-.057 1.25 1.25 0 0 0-.794.39 2.493 2.493 0 0 0-.532.823 2.412 2.412 0 0 0-.192.901v3.505c0 .463.118.773.355.929.236.156.581.234 1.035.234v.298c-.217-.01-.532-.021-.943-.036-.412-.014-.84-.02-1.284-.02-.369 0-.736.006-1.1.02-.364.015-.636.026-.816.036v-.298c.35 0 .599-.071.745-.213.147-.142.22-.411.22-.809v-4.469c0-.425-.068-.74-.205-.943-.138-.204-.39-.305-.76-.305v-.298a9.42 9.42 0 0 0 1.88-.007c.317-.033.608-.083.873-.15v1.476c.114-.265.263-.51.447-.738.184-.227.407-.413.667-.56.26-.147.541-.22.844-.22Zm6.796 0c.369 0 .678.052.93.156.25.104.446.237.588.397.17.18.288.419.355.717.066.298.099.674.099 1.128v3.816c0 .398.069.667.206.81.137.141.37.212.702.212v.298c-.17-.01-.426-.021-.766-.036a23.854 23.854 0 0 0-1.98 0c-.316.015-.555.026-.716.036v-.298c.275 0 .47-.071.589-.213.118-.142.177-.411.177-.809v-4.298c0-.256-.019-.485-.056-.689a.869.869 0 0 0-.242-.482c-.123-.118-.312-.177-.567-.177-.293 0-.558.085-.795.255a1.74 1.74 0 0 0-.56.702 2.365 2.365 0 0 0-.206 1v3.69c0 .397.057.666.17.808.114.142.313.213.596.213v.298c-.16-.01-.395-.021-.702-.036a20.451 20.451 0 0 0-.944-.02c-.35 0-.704.006-1.063.02-.36.015-.63.026-.81.036v-.298c.35 0 .599-.071.746-.213.146-.142.22-.411.22-.809v-4.469c0-.425-.07-.74-.206-.943-.137-.204-.39-.305-.76-.305v-.298a9.417 9.417 0 0 0 1.88-.007c.317-.033.608-.083.873-.15v1.42c.237-.52.553-.894.95-1.121.398-.227.828-.34 1.292-.34Zm4.27 0c.37 0 .68.052.93.156.25.104.447.237.588.397.17.18.289.419.355.717s.1.674.1 1.128v3.816c0 .398.073.667.22.81.146.141.394.212.744.212v.298c-.17-.01-.432-.021-.787-.036a25.738 25.738 0 0 0-1.029-.02c-.34 0-.669.006-.986.02-.317.015-.556.026-.716.036v-.298c.274 0 .47-.071.589-.213.118-.142.177-.411.177-.809v-4.298a3.37 3.37 0 0 0-.064-.689.862.862 0 0 0-.262-.482c-.133-.118-.332-.177-.596-.177-.435 0-.804.194-1.107.581-.303.388-.459.856-.468 1.405l-.071-1.022c.255-.586.596-.988 1.021-1.206.426-.217.88-.326 1.362-.326Zm7.066 0c.832 0 1.485.25 1.958.752.473.501.71 1.3.71 2.398h-4.782l-.014-.27h3.15a5.582 5.582 0 0 0-.086-1.284c-.075-.392-.196-.707-.361-.943-.166-.237-.381-.355-.646-.355-.36 0-.672.21-.936.631-.265.421-.43 1.11-.497 2.065l.057.085c-.02.123-.031.255-.036.397-.004.142-.007.284-.007.426 0 .652.095 1.191.284 1.617.19.426.435.738.738.937.302.198.614.297.936.297.331 0 .67-.082 1.015-.248.345-.165.65-.494.915-.986l.27.114c-.105.33-.277.66-.519.986a2.836 2.836 0 0 1-.929.801c-.378.208-.823.313-1.334.313-.643 0-1.21-.142-1.702-.426-.492-.284-.875-.707-1.15-1.27-.274-.563-.41-1.25-.41-2.064 0-.861.144-1.585.432-2.171.288-.587.688-1.033 1.199-1.34.51-.308 1.092-.462 1.745-.462Zm1.49-4.043a.638.638 0 0 1 .227.468c.01.189-.062.383-.213.582-.142.18-.32.352-.532.517l-.76.59c-.292.226-.642.534-1.05.921l-.155-.127c.283-.492.499-.908.645-1.249.147-.34.272-.634.376-.88.104-.245.232-.463.383-.652a.837.837 0 0 1 .532-.312.705.705 0 0 1 .547.142Zm5.675 4.043c.832 0 1.485.25 1.958.752.473.501.71 1.3.71 2.398h-4.782l-.014-.27h3.15a5.582 5.582 0 0 0-.086-1.284c-.076-.392-.196-.707-.362-.943-.165-.237-.38-.355-.645-.355-.36 0-.672.21-.936.631-.265.421-.43 1.11-.497 2.065l.057.085c-.02.123-.031.255-.036.397a12.59 12.59 0 0 0-.007.426c0 .652.095 1.191.284 1.617.189.426.435.738.738.937.302.198.614.297.936.297.331 0 .67-.082 1.014-.248.346-.165.65-.494.915-.986l.27.114c-.104.33-.277.66-.518.986-.241.326-.55.593-.93.801-.377.208-.822.313-1.333.313-.643 0-1.21-.142-1.702-.426-.492-.284-.875-.707-1.15-1.27-.274-.563-.41-1.25-.41-2.064 0-.861.143-1.585.432-2.171.288-.587.688-1.033 1.199-1.34.51-.308 1.092-.462 1.745-.462Zm9.647 2.128c.37 0 .712.06 1.03.178.316.118.621.26.914.425.294.166.596.308.908.426.312.118.639.177.98.177.302 0 .576-.07.822-.213.246-.142.435-.383.568-.723l.24.057c-.056.605-.29 1.085-.701 1.44a2.1 2.1 0 0 1-1.412.532c-.379 0-.724-.06-1.036-.178a6.975 6.975 0 0 1-.915-.425 7.391 7.391 0 0 0-.9-.426 2.668 2.668 0 0 0-.98-.177c-.312 0-.586.07-.823.213-.236.141-.425.383-.567.723l-.256-.057c.067-.614.305-1.097.717-1.447.411-.35.882-.525 1.412-.525Zm17.678-4.64a23.078 23.078 0 0 0-.1 1.958c.001.18.006.353.015.519.01.165.02.305.029.418h-.326c-.076-.653-.2-1.166-.37-1.54-.17-.373-.399-.638-.688-.794-.288-.156-.664-.234-1.127-.234h-.78c-.284 0-.502.024-.653.071a.448.448 0 0 0-.306.298c-.051.151-.078.383-.078.695v7.264c0 .303.026.532.078.688a.45.45 0 0 0 .306.306c.15.047.368.07.652.07h.809c.482 0 .887-.09 1.213-.269.326-.18.589-.475.787-.887.199-.411.346-.976.44-1.695h.326c-.028.293-.042.671-.042 1.135a24.947 24.947 0 0 0 .1 2.043 52.485 52.485 0 0 0-1.632-.036 205.94 205.94 0 0 0-1.618-.007h-1.22c-.51 0-1.052.003-1.624.007-.573.005-1.11.017-1.61.036v-.284c.311-.019.546-.057.702-.113a.492.492 0 0 0 .312-.34c.052-.171.078-.427.078-.767v-7.037c0-.35-.026-.608-.078-.773a.511.511 0 0 0-.312-.341c-.156-.061-.39-.097-.703-.106v-.284c.502.01 1.038.019 1.61.028.573.01 1.114.014 1.625.014h1.22c.435 0 .93-.002 1.483-.007a42.93 42.93 0 0 0 1.482-.035Zm-2.284 4.853v.284h-2.525v-.284h2.525Zm.412-1.873c-.038.54-.055.95-.05 1.235.005.283.007.543.007.78 0 .236.005.497.014.78.01.284.034.696.071 1.235h-.326a5.077 5.077 0 0 0-.22-.915c-.1-.289-.255-.52-.468-.696-.213-.175-.518-.262-.915-.262v-.284c.397 0 .697-.104.9-.312.204-.208.353-.459.448-.752.094-.293.165-.563.212-.809h.327Zm-.284-6.143a.837.837 0 0 1 .603-.106.625.625 0 0 1 .447.333c.085.17.1.345.043.525-.057.18-.19.331-.398.454a3.048 3.048 0 0 1-.702.298c-.26.076-.565.165-.915.27-.35.103-.785.264-1.306.482l-.099-.185c.445-.35.8-.657 1.064-.922.265-.265.49-.494.674-.688.185-.194.38-.348.589-.461Zm10.13 5.874v.298a.988.988 0 0 0-.504.298c-.156.16-.305.444-.447.85l-2.17 5.931a4.08 4.08 0 0 0-.695 0l-2.554-6.285c-.142-.36-.289-.582-.44-.667-.151-.085-.28-.127-.383-.127v-.298c.265.019.539.035.823.05a21.424 21.424 0 0 0 1.866 0c.326-.015.63-.031.915-.05v.298c-.209 0-.395.014-.56.042-.166.029-.277.102-.334.22-.057.118-.033.324.07.617l1.703 4.413-.127.156 1.29-3.505c.237-.662.273-1.144.107-1.447-.165-.302-.485-.468-.958-.496v-.298a16.385 16.385 0 0 0 1.32.056c.198 0 .395-.004.589-.014.194-.01.357-.023.49-.042Zm2.114 7.434c-.624 0-1.078-.16-1.362-.482-.284-.322-.426-.729-.426-1.22 0-.398.095-.726.284-.986.19-.26.433-.471.73-.632.299-.16.613-.3.944-.418.331-.119.644-.232.937-.34.293-.11.534-.233.723-.37a.63.63 0 0 0 .284-.532v-1.035c0-.303-.045-.551-.135-.745a.949.949 0 0 0-.397-.44c-.175-.1-.395-.15-.66-.15-.198 0-.406.03-.624.086a1.056 1.056 0 0 0-.54.326c.247.066.438.19.576.37.137.179.205.397.205.652 0 .293-.097.522-.29.688-.194.166-.438.248-.731.248-.312 0-.549-.1-.71-.298a1.072 1.072 0 0 1-.24-.695c0-.265.065-.485.198-.66a1.92 1.92 0 0 1 .553-.475c.236-.16.54-.288.908-.383.369-.095.771-.142 1.206-.142.416 0 .785.045 1.107.135.321.09.596.248.823.475.227.218.373.487.439.809.067.321.1.714.1 1.177v3.888c0 .236.026.404.078.504.052.099.144.149.276.149a.524.524 0 0 0 .298-.086c.085-.056.171-.118.256-.184l.156.241c-.208.161-.426.289-.653.383a2.136 2.136 0 0 1-.823.142c-.539 0-.898-.12-1.078-.362a1.428 1.428 0 0 1-.284-.83c-.255.426-.563.731-.922.916-.36.184-.761.276-1.206.276Zm.95-.794c.209 0 .412-.057.61-.17.2-.114.384-.303.554-.568v-2.866c-.123.19-.303.345-.54.468-.236.123-.474.258-.716.404-.24.147-.449.339-.624.575-.175.237-.262.563-.262.979 0 .407.092.705.276.894.185.19.419.284.703.284Zm9.521-6.839c.397 0 .716.052.957.156.242.104.438.237.589.397.17.18.291.412.362.696.071.283.106.666.106 1.149v3.816c0 .398.074.667.22.81.147.141.395.212.745.212v.298c-.17-.01-.433-.021-.787-.036a25.768 25.768 0 0 0-2.788.036v-.298c.302 0 .515-.071.638-.213.123-.142.185-.411.185-.809v-4.298c0-.256-.024-.485-.071-.689a.863.863 0 0 0-.284-.482c-.142-.118-.345-.177-.61-.177-.464 0-.847.186-1.149.56-.303.374-.454.84-.454 1.398v3.688c0 .398.061.667.184.81.123.141.336.212.639.212v.298c-.161-.01-.402-.021-.724-.036a22.21 22.21 0 0 0-.979-.02c-.35 0-.705.006-1.064.02-.359.015-.629.026-.809.036v-.298c.35 0 .599-.071.745-.213.147-.142.22-.411.22-.809v-4.469c0-.425-.069-.74-.206-.943-.137-.204-.39-.305-.759-.305v-.298a9.429 9.429 0 0 0 1.88-.007c.317-.033.608-.083.873-.15v1.42c.236-.54.562-.918.979-1.136.416-.217.87-.326 1.362-.326ZM113.205 50a6.81 6.81 0 0 1-1.518-.156c-.454-.104-.814-.258-1.079-.461s-.397-.461-.397-.773c0-.303.132-.572.397-.809.265-.236.653-.416 1.164-.54l.099.228c-.18.104-.317.246-.411.425-.095.18-.142.37-.142.568 0 .407.186.721.56.944.374.222.873.333 1.497.333.426 0 .818-.057 1.177-.17.36-.114.648-.289.866-.525.217-.237.326-.53.326-.88a.968.968 0 0 0-.319-.738c-.213-.198-.636-.298-1.27-.298h-.936c-.35 0-.669-.037-.958-.113a1.482 1.482 0 0 1-.688-.369c-.17-.17-.255-.407-.255-.71 0-.368.151-.702.454-1 .302-.298.775-.588 1.418-.872l.157.127a4.256 4.256 0 0 0-.632.398.654.654 0 0 0-.276.539c0 .303.208.454.624.454h1.603c.719 0 1.327.14 1.823.419.497.279.745.744.745 1.397 0 .454-.147.877-.44 1.27-.293.392-.735.71-1.326.95-.592.242-1.346.362-2.263.362Zm.127-5.69c-.775 0-1.421-.181-1.936-.545-.516-.365-.774-.934-.774-1.71 0-.785.258-1.357.774-1.717.515-.36 1.161-.539 1.936-.539.766 0 1.41.18 1.93.54.52.359.78.93.78 1.716 0 .776-.26 1.345-.78 1.71-.52.364-1.164.546-1.93.546Zm0-.255c.284 0 .509-.144.674-.432.166-.289.249-.811.249-1.568s-.083-1.28-.249-1.568c-.165-.288-.39-.433-.674-.433-.283 0-.508.145-.674.433-.165.289-.248.811-.248 1.568s.083 1.28.248 1.568c.166.288.391.433.674.433Zm2.143-3.05-.27-.1c.142-.35.374-.645.695-.886.322-.241.662-.362 1.022-.362.274 0 .489.076.645.227.156.152.234.364.234.639 0 .283-.075.491-.227.624a.736.736 0 0 1-.496.199.678.678 0 0 1-.44-.164c-.132-.108-.208-.279-.227-.51-.019-.232.057-.523.227-.873l.142.057c-.369.142-.643.298-.823.468-.18.17-.34.397-.482.681Zm6.143-1.206c.832 0 1.485.25 1.958.752.473.501.709 1.3.709 2.398h-4.781l-.014-.27h3.15a5.614 5.614 0 0 0-.086-1.284c-.075-.392-.196-.707-.361-.943-.166-.237-.381-.355-.646-.355-.359 0-.671.21-.936.631-.265.421-.431 1.11-.497 2.065l.057.085a3.385 3.385 0 0 0-.036.397c-.004.142-.007.284-.007.426 0 .652.095 1.191.284 1.617.189.426.435.738.738.937.302.198.615.297.936.297.331 0 .669-.082 1.015-.248.345-.165.65-.494.915-.986l.269.114c-.104.33-.276.66-.518.986-.241.326-.55.593-.929.801-.378.208-.823.313-1.333.313-.644 0-1.211-.142-1.703-.426-.492-.284-.875-.707-1.149-1.27-.275-.563-.412-1.25-.412-2.064 0-.861.145-1.585.433-2.171.289-.587.688-1.033 1.199-1.34.511-.308 1.092-.462 1.745-.462Zm1.49-4.043a.639.639 0 0 1 .227.468c.009.189-.062.383-.213.582-.142.18-.319.352-.532.517l-.759.59c-.293.226-.643.534-1.05.921l-.156-.127c.284-.492.499-.908.645-1.249.147-.34.272-.634.376-.88.104-.245.232-.463.383-.652a.84.84 0 0 1 .533-.312.705.705 0 0 1 .546.142Zm4.767.468v9.79c0 .397.073.666.22.808.146.142.395.213.745.213v.298a60.73 60.73 0 0 0-.774-.036 25.695 25.695 0 0 0-2.128 0c-.364.015-.636.026-.816.036v-.298c.35 0 .599-.071.745-.213.147-.142.22-.411.22-.809v-8.087c0-.425-.066-.74-.198-.943-.133-.203-.388-.305-.767-.305v-.298a9.574 9.574 0 0 0 1.887-.007c.313-.033.601-.083.866-.15Zm3.391.156c.34 0 .619.094.837.284.217.189.326.44.326.752a.949.949 0 0 1-.326.752c-.218.189-.497.283-.837.283-.341 0-.62-.094-.837-.284a.947.947 0 0 1-.327-.752c0-.312.109-.562.327-.751.217-.19.496-.284.837-.284Zm.993 3.462v6.171c0 .398.073.667.22.81.146.141.395.212.745.212v.298c-.171-.01-.431-.021-.781-.036a26.223 26.223 0 0 0-2.128 0c-.359.015-.629.026-.809.036v-.298c.35 0 .599-.071.745-.213.147-.142.22-.411.22-.809v-4.455c0-.435-.068-.754-.205-.957-.138-.204-.391-.305-.76-.305v-.298a9.429 9.429 0 0 0 1.88-.007c.317-.033.608-.083.873-.15Zm4.909-.043c.482 0 .891.083 1.227.248.336.166.617.452.844.859h-.227a1.495 1.495 0 0 0-.624-.603 1.843 1.843 0 0 0-.837-.192c-.501 0-.889.294-1.163.88-.275.586-.412 1.48-.412 2.681 0 .785.062 1.424.185 1.916s.302.846.539 1.064c.236.217.51.326.823.326.35 0 .664-.154.943-.461.279-.307.438-.75.475-1.327l.1.398c-.114.624-.353 1.104-.717 1.44a1.885 1.885 0 0 1-1.326.504c-.54 0-1.031-.138-1.476-.412-.444-.274-.794-.7-1.05-1.277-.255-.577-.383-1.305-.383-2.185 0-.86.133-1.577.397-2.15.265-.572.629-1 1.093-1.283.463-.284.993-.426 1.589-.426Zm3.377-.028.227.127a2.01 2.01 0 0 0-.078.39 3.714 3.714 0 0 0-.022.405v7.974c0 .359.066.605.199.737.132.133.359.199.681.199v.298c-.17-.01-.414-.021-.731-.036a21.725 21.725 0 0 0-.972-.02c-.454 0-.889.006-1.305.02-.416.015-.738.026-.965.036v-.298c.407 0 .726-.073.958-.22.232-.147.348-.433.348-.858v-7.946c.198-.028.399-.08.603-.156.203-.075.397-.17.581-.283.185-.114.343-.237.476-.37Zm8.385.07v5.96c0 .425.071.74.212.943.142.203.393.305.752.305v.298a9.138 9.138 0 0 0-.879-.043c-.35 0-.684.015-1.001.043-.316.028-.607.08-.872.156v-1.419c-.237.52-.56.892-.972 1.114a2.75 2.75 0 0 1-1.327.334c-.368 0-.678-.05-.929-.15-.25-.099-.451-.234-.603-.404a1.551 1.551 0 0 1-.34-.71c-.067-.293-.1-.67-.1-1.134v-3.59c0-.425-.068-.74-.205-.943-.137-.204-.391-.305-.759-.305v-.298a9.392 9.392 0 0 0 1.879-.007c.317-.033.608-.083.873-.15v5.79c0 .255.021.482.064.68.042.199.13.357.262.476.133.118.331.177.596.177.445 0 .816-.187 1.114-.56.298-.374.447-.835.447-1.384v-3.476c0-.425-.069-.74-.206-.943-.137-.204-.39-.305-.759-.305v-.298a9.429 9.429 0 0 0 1.88-.007c.317-.033.608-.083.873-.15Zm5.192-.042c.833 0 1.485.25 1.958.752.473.501.71 1.3.71 2.398h-4.782l-.014-.27h3.15a5.616 5.616 0 0 0-.085-1.284c-.076-.392-.197-.707-.362-.943-.166-.237-.381-.355-.646-.355-.359 0-.671.21-.936.631-.265.421-.43 1.11-.497 2.065l.057.085a3.19 3.19 0 0 0-.035.397c-.005.142-.007.284-.007.426 0 .652.094 1.191.283 1.617.19.426.435.738.738.937.303.198.615.297.937.297.331 0 .669-.082 1.014-.248.345-.165.65-.494.915-.986l.27.114c-.104.33-.277.66-.518.986a2.83 2.83 0 0 1-.93.801c-.378.208-.822.313-1.333.313-.643 0-1.211-.142-1.703-.426-.492-.284-.875-.707-1.149-1.27-.274-.563-.411-1.25-.411-2.064 0-.861.144-1.585.432-2.171.289-.587.688-1.033 1.199-1.34.511-.308 1.093-.462 1.745-.462Z" fill="#32302B"/>
</svg>
