<svg width="48" height="48" fill="none"
  xmlns="http://www.w3.org/2000/svg">
  <path d="M19.496 30.941c.566.23.84.874.61 1.44a16.279 16.279 0 0 0-.985 3.55 16.486 16.486 0 0 0 .653 7.894l.093.262.044-.053.268-.35.26-.36a1.104 1.104 0 0 1 1.552-.292 1.105 1.105 0 0 1 .262 1.558 16.828 16.828 0 0 1-1.6 1.962l-.352.36-1.1 1.088-.674-1.392c-1.623-3.356-2.2-7.207-1.59-11.025a18.494 18.494 0 0 1 1.118-4.033 1.106 1.106 0 0 1 1.44-.609Zm6.22-5.102a17.134 17.134 0 0 1 5.327 9.77c.636 3.63.097 7.367-1.538 10.67l-.184.36-.666 1.27-1.06-.967a17.13 17.13 0 0 1-5.327-9.77 17.348 17.348 0 0 1 .42-7.79 1.106 1.106 0 1 1 2.126.615 15.135 15.135 0 0 0-.367 6.796 14.976 14.976 0 0 0 3.377 7.211l.182.208.13-.333a15.115 15.115 0 0 0 .79-7.507l-.063-.385c-.577-3.336-2.217-6.303-4.64-8.514a1.106 1.106 0 1 1 1.493-1.634Zm18.873-.09a16.78 16.78 0 0 1 1.964 1.599l.358.352L48 28.8l-1.392.674c-3.356 1.624-7.208 2.2-11.025 1.59a18.493 18.493 0 0 1-4.034-1.118 1.106 1.106 0 1 1 .832-2.05 16.35 16.35 0 0 0 3.55.984c2.645.427 5.354.203 7.894-.652l.262-.094-.053-.044-.35-.268-.36-.259a1.106 1.106 0 0 1 1.266-1.814Zm-25.971-3.06a1.106 1.106 0 0 1-.613 2.124 15.138 15.138 0 0 0-6.797-.365 14.978 14.978 0 0 0-7.211 3.376l-.21.182.335.13a15.116 15.116 0 0 0 7.507.79l.385-.062c3.336-.578 6.303-2.218 8.515-4.64a1.106 1.106 0 0 1 1.633 1.492 17.134 17.134 0 0 1-9.77 5.328 17.32 17.32 0 0 1-10.67-1.538l-.36-.185-1.27-.666.966-1.06c2.54-2.782 5.948-4.665 9.77-5.327a17.351 17.351 0 0 1 7.79.42Zm27.66-4.193.362.184 1.27.667-.968 1.06c-2.54 2.782-5.947 4.665-9.77 5.327-2.595.453-5.258.31-7.789-.42a1.106 1.106 0 0 1 .613-2.125c2.188.63 4.5.763 6.797.365a14.978 14.978 0 0 0 7.211-3.376l.208-.184-.334-.129a15.118 15.118 0 0 0-7.506-.79l-.385.063c-3.337.578-6.303 2.218-8.515 4.64a1.107 1.107 0 0 1-1.633-1.492 17.134 17.134 0 0 1 9.77-5.328 17.323 17.323 0 0 1 10.67 1.538ZM19.346.092l1.06.967a17.13 17.13 0 0 1 5.327 9.77c.454 2.595.31 5.26-.42 7.79a1.106 1.106 0 1 1-2.126-.614c.632-2.187.765-4.5.367-6.797a14.975 14.975 0 0 0-3.377-7.21l-.183-.21-.13.335a15.115 15.115 0 0 0-.788 7.507l.062.385c.577 3.336 2.217 6.302 4.64 8.514a1.104 1.104 0 0 1-.277 1.819 1.107 1.107 0 0 1-1.216-.185 17.134 17.134 0 0 1-5.327-9.77 17.32 17.32 0 0 1 1.539-10.67l.184-.361.666-1.27Zm-6.927 16.846c1.402.224 2.754.6 4.033 1.117a1.107 1.107 0 0 1-.832 2.051 16.263 16.263 0 0 0-3.55-.984 16.486 16.486 0 0 0-7.894.652l-.263.093.054.044c.115.091.232.18.35.268l.36.26a1.106 1.106 0 0 1-1.266 1.814 16.795 16.795 0 0 1-1.962-1.6l-.36-.351L0 19.202l1.392-.674c3.356-1.624 7.208-2.2 11.025-1.59ZM28.8 0l.674 1.393c1.623 3.356 2.2 7.207 1.59 11.025a18.494 18.494 0 0 1-1.118 4.033 1.106 1.106 0 0 1-2.05-.832c.46-1.142.79-2.332.983-3.549a16.496 16.496 0 0 0-.652-7.894l-.094-.263-.043.054-.268.35-.26.36a1.107 1.107 0 1 1-1.814-1.266 16.827 16.827 0 0 1 1.6-1.962l.352-.36L28.8.001V0Z" fill="#32302B"/>
</svg>
